<?xml version="1.0" encoding="utf-8"?>
<!-- Generator: Adobe Illustrator 24.3.0, SVG Export Plug-In . SVG Version: 6.00 Build 0)  -->
<svg version="1.1" id="Layer_1" xmlns="http://www.w3.org/2000/svg" xmlns:xlink="http://www.w3.org/1999/xlink" x="0px" y="0px"
	 viewBox="0 0 1127.7 331.2" style="enable-background:new 0 0 1127.7 331.2;" xml:space="preserve">
<style type="text/css">
	.st0{fill:#130754;}
	.st1{fill:#FFCA00;}
	.st2{fill:#E70488;}
	.st3{clip-path:url(#SVGID_2_);}
	.st4{opacity:0.5;fill:#3269B1;}
	.st5{fill:#1461AD;}
	.st6{fill:none;stroke:#3269B1;stroke-miterlimit:10;}
</style>
<path class="st0" d="M290.9,199.2c-10.3,0-20.7-4.2-27.3-12.6v45H243V120.5h18.6l0.7,12.2c6.4-9.4,17.7-14.4,28.5-14.4
	c20.7,0,36,17.4,36,40.4S311.6,199.2,290.9,199.2z M284.5,133.7c-12,0-21.8,9.4-21.8,25.2s9.7,25.2,21.8,25.2s21.8-9.4,21.8-25.2
	S296.5,133.7,284.5,133.7z"/>
<path class="st0" d="M404.4,197.1l-0.7-12.2c-6.4,9.4-17.7,14.4-28.5,14.3c-20.7,0-36-17.4-36-40.4s15.2-40.4,36-40.4
	c10.8,0,22.1,5,28.5,14.4l0.7-12.2H423v76.5H404.4z M381.5,133.7c-12,0-21.8,9.4-21.8,25.2s9.7,25.2,21.8,25.2s21.8-9.4,21.8-25.2
	S393.6,133.7,381.5,133.7L381.5,133.7z"/>
<path class="st0" d="M494.9,197.1v-42.3c0-14.9-5.1-19.8-14.5-19.8c-9.8,0-20.4,8.9-20.4,19.5v42.7h-20.6v-76.5h18.8l0.9,14.2
	c5.1-9.8,16.6-16.3,28.4-16.3c20.4,0,28,14.2,28,33.1v45.5L494.9,197.1z"/>
<path class="st0" d="M590.8,197.1l-0.7-12.2c-6.4,9.4-17.7,14.4-28.5,14.4c-20.7,0-36-17.4-36-40.4s15.2-40.4,36-40.4
	c10.3,0,20.7,4.3,27.3,12.6V90.8h20.6v106.3H590.8z M567.9,133.7c-12,0-21.8,9.4-21.8,25.1s9.7,25.2,21.8,25.2s21.8-9.4,21.8-25.1
	S580,133.7,567.9,133.7z"/>
<path class="st0" d="M686.6,197.1l-0.7-12.2c-6.4,9.4-17.7,14.3-28.5,14.3c-20.7,0-36-17.4-36-40.4s15.2-40.4,36-40.4
	c10.8,0,22.2,5,28.5,14.4l0.7-12.2h18.6v76.5L686.6,197.1z M663.8,133.7c-12,0-21.8,9.4-21.8,25.2s9.8,25.1,21.8,25.1
	s21.8-9.4,21.8-25.2S675.8,133.7,663.8,133.7L663.8,133.7z"/>
<path class="st0" d="M750.7,199.6c-10.8-0.1-21.4-3.1-30.7-8.7l3.4-14.2c6.2,3.7,15.6,8.5,26.9,8.5c8.2,0,13.8-2.5,13.8-8.9
	c0-5.5-5.8-7.4-16.3-9.9c-18.8-4.1-25.5-14-25.5-24.8c0-12.1,9.4-23.4,30.1-23.4c12.6,0,23.6,5.5,26,6.9l-3.4,13.5
	c-6.7-4-14.3-6.2-22.1-6.4c-8.3,0-12.4,2.8-12.4,7.4c0,5.1,5.3,7.4,13.5,9.4c20.2,4.2,28.3,13.6,28.3,23.9
	C782.5,189.5,770.4,199.6,750.7,199.6z"/>
<rect x="74.9" y="68.4" class="st0" width="24.1" height="50"/>
<rect x="74.9" y="171.2" class="st0" width="24.1" height="50"/>
<rect x="74.9" y="133" class="st1" width="24.1" height="23.6"/>
<rect x="36.2" y="109.5" class="st0" width="24.1" height="166.3"/>
<rect x="112.8" y="212.4" class="st0" width="24.1" height="50"/>
<rect x="112.8" y="109.6" class="st0" width="24.1" height="50"/>
<rect x="112.8" y="174.2" class="st2" width="24.1" height="23.6"/>
<rect x="150.7" y="55.4" class="st0" width="24.1" height="166.3"/>
<g>
	<defs>
		<rect id="SVGID_1_" x="830.7" y="53.5" width="253.3" height="206.3"/>
	</defs>
	<clipPath id="SVGID_2_">
		<use xlink:href="#SVGID_1_"  style="overflow:visible;"/>
	</clipPath>
	<g class="st3">
		<path class="st4" d="M1023.5,278.4c-0.4,0.2-0.8,0.5-1.2,0.8C1022.5,279.1,1022.9,278.7,1023.5,278.4z"/>
		<path class="st5" d="M1033.1,95.2c0,0-5.1-6.8-14.7-11c-9.6-4.3-2.2-15.1,8.1-12.9C1036.8,73.5,1033.1,95.2,1033.1,95.2z"/>
		<path class="st5" d="M1047.7,76.1c-2.3,7-11.1,14.1-11.1,14.1s0-0.2,0-0.5c-0.1-2.9-0.4-18.1,2.4-20.9h0v0l0,0
			c0.1-0.1,0.2-0.2,0.4-0.3c0.4-0.3,0.9-0.6,1.3-0.7c1.5-0.6,3-0.2,3-0.2S1050,69.2,1047.7,76.1z"/>
		<path class="st5" d="M1024.2,112.9c-3.5-0.7-7.2-1-10.9-1c-12.7,0-24.1,4.1-34.2,10.5c-0.7,0.5-1.5,1-2.2,1.5
			c-0.6,0.3-1.1,0.7-1.7,1.1c0,0,0,0,0,0c-0.1,0.1-0.1,0.1-0.1,0.1c-0.7,0.4-1.3,0.9-1.9,1.4c-1.8,1.3-3.3,2.5-4.3,3.2
			c-0.1,0.1-0.2,0.2-0.4,0.2c-0.4,0.3-0.6,0.4-0.6,0.4c-6.1,4.5-16.2,12.4-30.8,24.6c-1,0.9-2.1,1.8-3.2,2.7l-3.6,3.1
			c-0.7,0.6-1.4,1.2-2.1,1.8c-11.8,9.5-19.4,9.1-24.5,6.1c-10.5-6.5-13.4-25.9-8.1-36.2c1-1.9,2.3-3.8,4.2-5.5
			c1.8-1.7,4.1-3.3,7-4.6c0.6-0.3,1.3-0.6,1.9-0.9c20.3-8.3,20.4-21.1,20.4-21.1c-4.9,4.3-17.2,1.7-25.3,3.5
			c-7.1,1.6-9.1,7.1-9.5,8.5c0.4-1.7,1.7-10.2-7.1-16c-8.3-5.4-9.6-10.9-9.8-12.5c0-0.1,0-0.2,0-0.2c0-0.2,0-0.3,0-0.3
			c-2.9,3.4-7.9,12.8-1.2,34.2c0.2,1.1,0.3,2.3,0.3,3.7c0,2.9-0.5,6.8-1.9,12.8c-0.3,1.4-0.7,3-1.2,4.7c0,0-0.1,0.4-0.3,1.1
			c0,0.2-0.1,0.5-0.2,0.7c0,0-9,23.7-0.5,51.9c2.3,7.5,5.8,15.4,11,23.2c20.4,25.7,51.7,42.1,86.8,42.1c9.6,0,19-1.2,27.9-3.6
			c0.7-0.2,1.4-0.4,2-0.6c23.1-6.7,43.2-20.7,57.5-39.4c4.3-5.6,8.1-11.6,11.2-17.9c2.9-7.2,4.5-15,4.5-23.2
			C1073.4,143,1052.2,118.1,1024.2,112.9z M1032.6,168c-4.5,0-8.2-3.7-8.2-8.3c0-4.6,3.7-8.2,8.2-8.2c4.5,0,8.2,3.7,8.2,8.2
			C1040.8,164.3,1037.1,168,1032.6,168z"/>
	</g>
</g>
</svg>
